<svg xmlns="http://www.w3.org/2000/svg" viewBox="0 0 120 20" width="120" height="20"><style>.a{fill:#FFF;}</style><g fill="none"><g transform="translate(-155 -22)translate(155 22)"><path d="M26.1 19L26.1 16.9C27.1 17.6 28.2 18 29.4 18 30.6 18 31.5 17.7 32 17.1 32.6 16.5 32.8 15.5 32.8 14.1L32.8 1.7 34.8 1.7 34.8 14.3C34.8 15.4 34.6 16.3 34.3 17.1 34 17.9 33.6 18.5 33.1 18.9 32.5 19.2 32 19.5 31.4 19.7 30.9 19.8 30.3 19.9 29.6 19.9 28.3 19.9 27.2 19.6 26.1 19" class="a"></path><path d="M38.7 14L38.7 6.2 40.6 6.2 40.6 14.1C40.6 15.5 40.9 16.5 41.5 17.1 42.1 17.7 43.1 18.1 44.3 18.1 45.6 18.1 46.5 17.7 47.1 17.1 47.7 16.5 48 15.5 48 14.1L48 6.2 50 6.2 50 14C50 15.9 49.5 17.3 48.5 18.4 47.5 19.4 46.1 19.9 44.3 19.9 42.5 19.9 41.1 19.4 40.2 18.4 39.2 17.3 38.7 15.9 38.7 14" class="a"></path><path d="M52.7 9.9C52.7 8.8 53.1 7.9 53.9 7.1 54.7 6.4 55.9 6 57.5 6 58.6 6 59.8 6.2 60.9 6.8L60.9 8.7C59.9 8.1 58.8 7.8 57.7 7.8 55.7 7.8 54.6 8.5 54.6 9.9 54.6 10.3 54.9 10.7 55.4 11 55.9 11.3 56.5 11.5 57.2 11.7 57.9 11.9 58.6 12.1 59.3 12.4 60 12.7 60.6 13.1 61.1 13.7 61.6 14.4 61.9 15.2 61.9 16.1 61.9 17.3 61.4 18.2 60.6 18.9 59.7 19.6 58.5 19.9 56.9 19.9 55.4 19.9 54.1 19.6 52.9 18.9L52.9 16.8C54.2 17.6 55.5 18 56.9 18 58.9 18 59.9 17.4 59.9 16.1 59.9 15.5 59.7 15 59.2 14.6 58.7 14.2 58.1 13.9 57.4 13.7 56.7 13.5 56 13.3 55.2 13.1 54.5 12.9 53.9 12.5 53.4 12 52.9 11.4 52.7 10.7 52.7 9.9" class="a"></path><path d="M66.2 15.7C66.2 17.3 67.4 18.1 69.7 18.1 70.2 18.1 70.7 18.1 71.1 17.9 71.5 17.8 71.9 17.6 72.3 17.3 72.8 16.9 73.1 16.4 73.4 15.6 73.6 14.9 73.7 13.9 73.7 12.8 73.7 11 73.4 9.8 72.7 9 72 8.2 71 7.8 69.5 7.8 68.4 7.8 67.3 8 66.2 8.5L66.2 15.7ZM64.2 15.6L64.2 1.1 66.2 1.1 66.2 6.5C67.2 6.2 68.3 6 69.5 6 70.1 6 70.7 6 71.2 6.1 71.8 6.2 72.3 6.4 72.9 6.8 73.4 7.1 73.9 7.5 74.3 7.9 74.7 8.4 75 9.1 75.3 9.9 75.5 10.7 75.7 11.7 75.7 12.8 75.7 14 75.5 15 75.3 15.9 75 16.8 74.6 17.5 74.2 18 73.8 18.5 73.3 18.9 72.8 19.2 72.2 19.5 71.7 19.7 71.2 19.8 70.7 19.9 70.2 19.9 69.7 19.9 68.8 19.9 67.9 19.8 67.2 19.5 66.5 19.3 65.9 19 65.6 18.7 65.2 18.4 64.9 18 64.7 17.6 64.5 17.1 64.3 16.8 64.3 16.5 64.2 16.2 64.2 15.9 64.2 15.6L64.2 15.6Z" class="a"></path><path d="M78.7 19.7L78.7 7.3C80.7 6.4 82.9 6 85.2 6L85.2 7.8C83.7 7.9 82.2 8.1 80.6 8.5L80.6 19.7 78.7 19.7" class="a"></path><path d="M88.2 15.5C88.2 17.2 89.4 18.1 91.9 18.1L91.9 18.1C94.3 18.1 95.5 17.2 95.5 15.6L95.5 13C94.9 12.9 94.1 12.9 93.1 12.9 89.8 12.9 88.2 13.8 88.2 15.5ZM86.3 15.5C86.3 14.9 86.4 14.4 86.6 13.9 86.8 13.4 87.1 13 87.4 12.7 87.8 12.5 88.2 12.2 88.7 12 89.2 11.8 89.6 11.6 90 11.5 90.4 11.4 90.8 11.3 91.4 11.3 91.9 11.2 92.3 11.2 92.5 11.2 92.7 11.2 93 11.2 93.3 11.2L95.5 11.3C95.5 10.1 95.1 9.2 94.5 8.7 93.8 8.2 92.8 7.9 91.5 7.9 90.1 7.9 88.8 8.1 87.6 8.6L87.6 6.7C88.9 6.2 90.3 6 91.6 6 93.5 6 95 6.5 96 7.4 97 8.4 97.4 9.8 97.4 11.6L97.4 15.6C97.4 16.5 97.2 17.2 96.8 17.8 96.4 18.5 95.9 18.9 95.3 19.2 94.7 19.4 94.1 19.6 93.5 19.7 93 19.8 92.5 19.9 91.9 19.9 91.5 19.9 91.1 19.9 90.6 19.8 90.2 19.8 89.7 19.6 89.2 19.5 88.6 19.3 88.1 19 87.7 18.7 87.3 18.4 87 18 86.7 17.5 86.4 16.9 86.3 16.3 86.3 15.5L86.3 15.5Z" class="a"></path><path d="M99.8 9.9C99.8 8.8 100.2 7.9 100.9 7.1 101.7 6.4 102.9 6 104.6 6 105.7 6 106.9 6.2 108 6.8L108 8.7C107 8.1 105.9 7.8 104.8 7.8 102.7 7.8 101.7 8.5 101.7 9.9 101.7 10.3 102 10.7 102.5 11 102.9 11.3 103.5 11.5 104.3 11.7 105 11.9 105.7 12.1 106.4 12.4 107.1 12.7 107.7 13.1 108.2 13.7 108.7 14.4 109 15.2 109 16.1 109 17.3 108.5 18.2 107.6 18.9 106.8 19.6 105.6 19.9 104 19.9 102.5 19.9 101.2 19.6 99.9 18.9L99.9 16.8C101.2 17.6 102.6 18 103.9 18 106 18 107 17.4 107 16.1 107 15.5 106.8 15 106.3 14.6 105.8 14.2 105.2 13.9 104.5 13.7 103.7 13.5 103 13.3 102.3 13.1 101.6 12.9 101 12.5 100.5 12 100 11.4 99.8 10.7 99.8 9.9" class="a"></path><path d="M111.6 19.7L113.5 19.7 113.5 6.2 111.6 6.2 111.6 19.7ZM111.5 3.8L113.7 3.8 113.7 1.7 111.5 1.7 111.5 3.8Z" class="a"></path><polygon points="117.4 19.7 119.4 19.7 119.4 1.1 117.4 1.1" class="a"></polygon><path d="M1.9 19.4L1.9 19.4C0.3 18.5-0.2 16.5 0.7 15L8.3 1.8C9.2 0.2 11.2-0.3 12.8 0.6 14.4 1.5 14.9 3.5 14 5L6.4 18.2C5.5 19.8 3.5 20.3 1.9 19.4" fill="#F9C823"></path><path d="M20.5 19.4L20.5 19.4C18.9 20.3 16.9 19.8 16 18.2L8.3 5C7.4 3.5 8 1.5 9.5 0.6 11.1-0.3 13.1 0.2 14 1.8L21.7 15C22.6 16.5 22 18.5 20.5 19.4" fill="#3C81B5"></path><path d="M13.9 1.6C13.9 1.5 13.8 1.5 13.8 1.5 13.8 1.4 13.7 1.4 13.7 1.3 13.7 1.3 13.6 1.2 13.6 1.2 13.6 1.2 13.5 1.1 13.5 1.1 13.5 1 13.4 1 13.4 1 13.3 0.9 13.3 0.9 13.3 0.9 13.2 0.8 13.2 0.8 13.1 0.8 13.1 0.7 13.1 0.7 13 0.7 13 0.7 12.9 0.6 12.8 0.6 12.8 0.6 12.8 0.5 12.7 0.5 12.7 0.5 12.6 0.5 12.6 0.4 12.5 0.4 12.5 0.4 12.4 0.4 12.4 0.4 12.3 0.3 12.3 0.3 12.2 0.3 12.2 0.3 12.1 0.3 12.1 0.2 12 0.2 12 0.2 11.9 0.2 11.9 0.2 11.8 0.2 11.7 0.2 11.7 0.2 11.7 0.2 11.6 0.2 11.5 0.1 11.5 0.1 11.4 0.1 11.4 0.1 11.3 0.1 11.3 0.1 11.2 0.1 11.2 0.1 11.1 0.1 11.1 0.1 11 0.1 11 0.1 10.9 0.1 10.9 0.1 10.8 0.1 10.8 0.2 10.7 0.2 10.7 0.2 10.6 0.2 10.6 0.2 10.5 0.2 10.4 0.2 10.4 0.2 10.3 0.2 10.3 0.2 10.3 0.3 10.2 0.3 10.1 0.3 10.1 0.3 10 0.3 10 0.4 9.9 0.4 9.9 0.4 9.8 0.4 9.8 0.4 9.7 0.5 9.7 0.5 9.6 0.5 9.6 0.5 9.5 0.6 9.5 0.6 9.4 0.6 9.4 0.7 9.3 0.7 9.3 0.7 9.3 0.7 9.2 0.8 9.2 0.8 9.1 0.8 9.1 0.9 9 0.9 9 0.9 9 1 8.9 1 8.9 1 8.9 1.1 8.8 1.1 8.8 1.2 8.7 1.2 8.7 1.2 8.7 1.3 8.7 1.3 8.6 1.4 8.6 1.4 8.5 1.5 8.5 1.5 8.5 1.5 8.5 1.6 8.4 1.6 8.4 1.7 8.4 1.7 7.8 2.7 7.7 4 8.3 5L11.2 9.9 14 5C14.6 4 14.6 2.7 14 1.7 14 1.7 13.9 1.6 13.9 1.6" fill="#72AC42"></path></g></g></svg>
